<?xml version="1.0" encoding="UTF-8" standalone="no"?>
<!DOCTYPE svg PUBLIC "-//W3C//DTD SVG 1.1//EN"
 "http://www.w3.org/Graphics/SVG/1.1/DTD/svg11.dtd">
<!-- Generated by graphviz version 2.38.0 (20140413.2041)
 -->
<!-- Title: G Pages: 1 -->
<svg width="299pt" height="168pt"
 viewBox="0.00 0.00 299.00 168.00" xmlns="http://www.w3.org/2000/svg" xmlns:xlink="http://www.w3.org/1999/xlink">
<g id="graph0" class="graph" transform="scale(1 1) rotate(0) translate(4 164)">
<title>G</title>
<polygon fill="white" stroke="none" points="-4,4 -4,-164 295,-164 295,4 -4,4"/>
<g id="clust1" class="cluster"><title>cluster_Global</title>
<path fill="none" stroke="gray" d="M20,-8C20,-8 271,-8 271,-8 277,-8 283,-14 283,-20 283,-20 283,-140 283,-140 283,-146 277,-152 271,-152 271,-152 20,-152 20,-152 14,-152 8,-146 8,-140 8,-140 8,-20 8,-20 8,-14 14,-8 20,-8"/>
<text text-anchor="middle" x="145.5" y="-139.2" font-family="Times,serif" font-size="11.00" fill="gray">Global</text>
</g>
<g id="clust2" class="cluster"><title>cluster_\Suchomsky</title>
<path fill="none" stroke="gray" d="M28,-16C28,-16 263,-16 263,-16 269,-16 275,-22 275,-28 275,-28 275,-112 275,-112 275,-118 269,-124 263,-124 263,-124 28,-124 28,-124 22,-124 16,-118 16,-112 16,-112 16,-28 16,-28 16,-22 22,-16 28,-16"/>
<text text-anchor="middle" x="145.5" y="-111.2" font-family="Times,serif" font-size="11.00" fill="gray">Suchomsky</text>
</g>
<g id="clust3" class="cluster"><title>cluster_\Suchomsky\SqlTree</title>
<path fill="none" stroke="gray" d="M36,-24C36,-24 255,-24 255,-24 261,-24 267,-30 267,-36 267,-36 267,-84 267,-84 267,-90 261,-96 255,-96 255,-96 36,-96 36,-96 30,-96 24,-90 24,-84 24,-84 24,-36 24,-36 24,-30 30,-24 36,-24"/>
<text text-anchor="middle" x="145.5" y="-83.2" font-family="Times,serif" font-size="11.00" fill="gray">SqlTree</text>
</g>
<!-- \\Suchomsky\\SqlTree\\TreeAdapter -->
<g id="node1" class="node"><title>\\Suchomsky\\SqlTree\\TreeAdapter</title>
<polygon fill="none" stroke="black" points="259,-68 168,-68 168,-32 259,-32 259,-68"/>
<text text-anchor="middle" x="213.5" y="-47.2" font-family="Courier,monospace" font-size="11.00">TreeAdapter</text>
</g>
<!-- \\Suchomsky\\SqlTree\\SqlTree -->
<g id="node2" class="node"><title>\\Suchomsky\\SqlTree\\SqlTree</title>
<polygon fill="none" stroke="black" points="96,-68 32,-68 32,-32 96,-32 96,-68"/>
<text text-anchor="middle" x="64" y="-47.2" font-family="Courier,monospace" font-size="11.00">SqlTree</text>
</g>
<!-- \\Suchomsky\\SqlTree\\TreeAdapter&#45;&gt;\\Suchomsky\\SqlTree\\SqlTree -->
<g id="edge1" class="edge"><title>\\Suchomsky\\SqlTree\\TreeAdapter&#45;&gt;\\Suchomsky\\SqlTree\\SqlTree</title>
<path fill="none" stroke="black" d="M167.845,-50C148.385,-50 125.707,-50 106.606,-50"/>
<polygon fill="none" stroke="black" points="106.405,-46.5001 96.4051,-50 106.405,-53.5001 106.405,-46.5001"/>
</g>
</g>
</svg>
